:SAMPLES-PER-SECOND 30
:FULLY-SPECIFIED
:DEGREES
329
root  -43.619 39.6003 18.7464 -3.87927 66.8335 -1.65295
RightUpLeg  -9.26986 -9.90004 -1.99573
RightLeg  20.6881 0.69549 0.764574
RightFoot  -8.16442 -0.0425045 -0.460885
RightToes  -1.74624e-010 0 -3.6325e-017
Spine  7.06938 0.0654417 13.1388
Spine1  5.12941 2.43045 -3.40587
HEad  -19.4316 12.8613 -8.85072
LeftShoulder1  -0.420616 4.54475 -34.2503
LeftArm  -0.219254 14.7289 -40.0378
LeftForeArm  34.0122 -11.8929 -8.02589
LeftHand  -0.116313 8.24018 -2.68135
RightShoulder  -1.12302 -6.53423 30.52
RightArm  14.8566 5.12479 43.3103
RightForeArm  12.2322 10.0596 7.10093
RightHand  -0.306482 5.56756 -3.56972
LeftUpLeg  -10.5611 -0.0331934 4.17778
LeftLeg  55.6193 -0.38339 -0.106065
LeftFoot  2.63144 0.391136 -3.30596
LeftToes  2.27646e-009 -8.13696e-011 -1.44715e-011
330
root  -42.7969 39.727 19.3618 -2.93051 67.469 -0.21991
RightUpLeg  -6.49138 -10.5572 -2.8047
RightLeg  19.6954 0.731108 1.03
RightFoot  -9.34845 -0.0542941 -0.516723
RightToes  -1.74624e-010 0 -3.6325e-017
Spine  7.2315 0.370867 13.4515
Spine1  4.42909 2.8816 -4.40931
HEad  -18.6966 12.0741 -8.98092
LeftShoulder1  -0.38508 4.45478 -34.3387
LeftArm  -2.66152 16.0208 -39.1901
LeftForeArm  35.067 -9.89287 -8.26286
LeftHand  -0.0443896 8.45727 0.0508086
RightShoulder  -1.0211 -6.30941 29.8525
RightArm  15.8283 6.83316 43.7607
RightForeArm  8.73933 12.7762 6.56127
RightHand  -0.383451 5.1544 -4.52422
LeftUpLeg  -12.8695 0.976663 3.10706
LeftLeg  53.1121 -0.562918 -0.3421
LeftFoot  0.389446 0.255923 -2.52225
LeftToes  2.27646e-009 -8.13696e-011 -1.44715e-011
331
root  -42.0067 39.8252 19.969 -1.41326 67.7561 1.41798
RightUpLeg  -4.33815 -10.6938 -3.39741
RightLeg  18.8178 0.659135 1.02159
RightFoot  -10.3771 -0.0653686 -0.59236
RightToes  -1.74624e-010 0 -3.6325e-017
Spine  6.93788 1.00245 13.373
Spine1  4.21765 3.50978 -5.27942
HEad  -18.2607 12.1621 -9.1106
LeftShoulder1  -0.340811 4.34318 -34.4466
LeftArm  -4.20221 16.8374 -38.662
LeftForeArm  37.1894 -8.69618 -8.10988
LeftHand  -0.0735277 8.79597 -0.817862
RightShoulder  -1.01908 -6.33175 29.4865
RightArm  16.9223 9.09217 44.1338
RightForeArm  7.08061 15.2281 5.89483
RightHand  -0.311863 5.63394 -3.59585
LeftUpLeg  -14.8769 2.66307 1.92842
LeftLeg  48.2795 -0.199798 0.160534
LeftFoot  -1.25689 0.191538 -2.08465
LeftToes  2.27646e-009 -8.13696e-011 -1.44715e-011
332
root  -41.2214 39.9191 20.5178 -0.00858678 68.5929 3.25824
RightUpLeg  -1.65159 -11.2519 -4.35246
RightLeg  17.652 0.483248 1.2057
RightFoot  -11.2108 -0.0750223 -0.712821
RightToes  -1.74624e-010 0 -3.6325e-017
Spine  7.13575 1.15096 13.1323
Spine1  3.95415 3.70082 -6.3409
HEad  -18.3071 11.9137 -8.91586
LeftShoulder1  -0.323101 4.30193 -34.3336
LeftArm  -5.41415 17.4798 -38.5206
LeftForeArm  38.2324 -8.00924 -7.78061
LeftHand  -0.0998167 9.15546 -1.4682
RightShoulder  -0.959385 -6.18626 29.2044
RightArm  18.0726 10.8081 44.1877
RightForeArm  4.84867 18.1542 5.15679
RightHand  -0.326975 6.2211 -3.61244
LeftUpLeg  -15.8666 4.25741 0.444455
LeftLeg  41.2328 0.727872 1.06666
LeftFoot  -1.88973 0.150263 -1.69301
LeftToes  2.27646e-009 -8.13696e-011 -1.44715e-011
333
root  -40.4366 39.9884 21.0389 1.18524 69.3241 4.56754
RightUpLeg  0.771493 -11.3518 -4.87161
RightLeg  16.2727 -0.104317 1.17236
RightFoot  -11.9043 -0.0835007 -0.616928
RightToes  -1.74624e-010 0 -3.6325e-017
Spine  7.01978 1.34112 12.7735
Spine1  3.91413 3.84383 -7.14097
HEad  -18.4757 11.5231 -9.11145
LeftShoulder1  -0.329208 4.32381 -33.9994
LeftArm  -5.88081 18.0851 -38.7177
LeftForeArm  37.6793 -8.08165 -7.54028
LeftHand  -0.123431 8.93814 -2.30902
RightShoulder  -0.982696 -6.2631 29.0574
RightArm  18.3924 12.3515 44.1205
RightForeArm  4.09339 21.0625 4.73319
RightHand  -0.30761 7.20644 -3.18292
LeftUpLeg  -16.253 6.62249 -0.852475
LeftLeg  32.3104 1.56632 1.41714
LeftFoot  -2.12542 0.221071 -2.56865
LeftToes  2.27646e-009 -8.13696e-011 -1.44715e-011
